<?xml version="1.0" encoding="UTF-8" ?>
<!DOCTYPE svg PUBLIC "-//W3C//DTD SVG 1.1//EN" "http://www.w3.org/Graphics/SVG/1.1/DTD/svg11.dtd">
<svg width="920pt" height="823pt" viewBox="0 0 920 823" version="1.1" xmlns="http://www.w3.org/2000/svg">
<g id="#1a75d2ff">
<path fill="#1a75d2" opacity="1.00" d=" M 442.03 42.50 C 445.05 42.73 447.95 41.68 450.94 41.52 C 470.64 41.39 490.35 41.30 510.04 41.59 C 515.43 43.06 521.07 41.89 526.47 43.19 C 529.80 43.80 533.26 43.15 536.54 44.13 C 540.61 45.21 544.81 45.54 549.01 45.62 C 558.49 47.87 568.23 48.76 577.70 51.13 C 615.46 59.44 652.16 73.88 684.21 95.70 C 731.42 127.94 768.26 174.93 789.19 228.07 C 796.88 247.46 802.27 267.67 806.25 288.13 C 806.93 296.72 809.44 305.07 809.70 313.72 C 810.96 319.08 810.37 324.60 810.64 330.05 C 812.20 341.95 811.39 354.01 811.52 365.99 C 811.87 372.72 810.30 379.30 810.48 386.02 C 809.08 398.79 808.49 411.66 805.49 424.21 C 796.86 470.75 776.53 515.49 745.09 551.09 C 721.94 577.87 693.23 600.94 659.51 612.74 C 651.52 615.56 643.31 617.80 635.00 619.39 C 629.92 619.40 625.02 620.76 620.04 621.44 C 612.34 621.63 604.64 621.45 596.94 621.53 C 585.83 620.57 574.76 618.23 564.49 613.76 C 549.96 607.67 537.48 596.92 529.43 583.37 C 525.62 576.62 521.63 569.68 520.07 562.02 C 514.75 572.72 506.97 582.12 498.61 590.61 C 485.33 604.37 468.01 613.78 449.72 619.03 C 441.52 620.39 433.42 622.96 425.01 622.51 C 417.40 622.21 409.62 623.40 402.19 621.32 C 378.86 618.17 357.40 605.59 341.73 588.24 C 321.20 566.44 308.73 538.09 302.52 509.04 C 299.81 495.15 297.01 481.16 297.35 466.94 C 296.07 460.36 296.58 453.65 296.49 447.00 C 296.57 442.28 296.16 437.50 297.11 432.84 C 297.86 427.31 297.08 421.68 297.77 416.14 C 298.71 411.79 299.65 407.39 299.47 402.93 C 305.32 361.87 320.12 321.57 345.28 288.35 C 361.88 266.23 382.69 246.49 408.12 234.98 C 416.71 230.84 425.92 228.20 435.11 225.75 C 439.17 225.49 443.17 224.70 447.12 223.70 C 457.41 223.13 467.74 223.29 478.05 223.55 C 494.56 226.17 510.82 232.36 523.56 243.42 C 534.03 252.76 543.42 263.79 549.04 276.73 C 549.94 263.74 553.49 251.15 555.00 238.25 C 555.69 235.23 555.92 232.03 557.69 229.37 C 581.12 229.70 604.57 229.43 628.00 229.51 C 630.95 229.67 634.19 228.85 636.83 230.57 C 636.32 240.14 634.04 249.51 632.62 258.97 C 632.47 266.11 629.87 272.92 629.48 280.03 C 629.37 283.13 628.27 286.06 627.81 289.11 C 627.30 297.77 625.04 306.20 624.15 314.82 C 622.59 323.23 621.73 331.76 619.85 340.11 C 619.57 348.54 616.67 356.59 616.32 365.00 C 615.79 368.00 614.83 370.92 614.61 373.97 C 614.41 381.76 611.49 389.19 611.33 397.00 C 609.82 403.55 608.77 410.22 608.18 416.91 C 606.36 422.92 606.72 429.27 604.96 435.30 C 604.20 444.87 601.86 454.25 601.21 463.85 C 599.59 469.43 599.71 475.27 598.69 480.94 C 598.42 487.65 597.15 494.27 597.52 501.01 C 597.24 511.06 597.26 521.73 602.50 530.69 C 605.88 536.33 611.73 540.37 618.30 541.19 C 631.63 542.70 644.92 537.34 655.25 529.14 C 667.63 519.07 677.05 505.89 684.89 492.10 C 694.91 474.71 701.76 455.67 706.74 436.27 C 708.17 428.17 709.86 420.11 711.34 412.01 C 711.28 406.95 712.70 402.04 712.60 396.97 C 714.14 390.73 712.91 384.25 714.33 377.99 C 714.41 369.38 714.58 360.74 714.25 352.13 C 712.75 346.12 714.27 339.85 712.86 333.84 C 712.05 329.65 712.84 325.35 712.10 321.15 C 710.72 312.54 709.10 303.97 708.00 295.31 C 705.02 283.07 702.37 270.70 697.87 258.90 C 691.79 241.25 683.38 224.40 672.99 208.90 C 663.19 194.12 651.00 181.06 637.77 169.31 C 613.47 148.38 583.67 134.59 552.66 126.99 C 531.77 122.32 510.47 118.91 488.99 119.49 C 474.66 119.75 460.25 118.75 446.00 120.52 C 422.74 123.25 399.57 128.19 377.73 136.86 C 345.32 149.18 316.07 169.15 291.60 193.60 C 258.65 226.55 235.62 268.90 224.34 314.01 C 222.35 321.89 219.98 329.72 219.18 337.85 C 215.60 355.69 213.15 373.84 213.47 392.07 C 211.99 399.62 212.64 407.34 212.50 415.00 C 212.54 420.99 212.46 427.00 212.71 432.99 C 214.19 439.70 212.90 446.65 214.29 453.38 C 214.88 462.43 216.35 471.39 218.01 480.31 C 222.86 511.22 232.49 541.46 246.91 569.27 C 258.21 590.93 272.55 610.95 289.27 628.75 C 312.25 652.98 340.74 671.88 371.87 683.96 C 393.59 693.09 416.80 697.79 439.96 701.48 C 445.96 702.17 451.95 702.99 457.97 703.46 C 463.36 703.05 468.61 704.64 473.98 704.44 C 488.68 704.50 503.38 704.62 518.07 704.30 C 521.70 703.75 525.36 703.38 529.05 703.39 C 534.44 703.41 539.55 701.12 544.97 701.46 C 558.95 699.50 572.90 697.25 586.65 694.01 C 621.14 685.71 654.49 672.60 685.44 655.25 C 689.44 653.23 693.03 650.41 697.28 648.90 C 707.31 669.08 716.33 689.78 726.10 710.09 C 727.37 712.35 728.30 714.76 729.12 717.22 C 704.62 731.96 678.34 743.62 651.67 753.83 C 617.79 766.24 582.55 775.03 546.73 779.23 C 541.27 780.66 535.59 780.44 530.07 781.48 C 524.65 781.00 519.42 782.88 514.01 782.51 C 497.68 782.63 481.34 782.87 465.00 782.52 C 459.84 782.31 454.60 783.01 449.52 781.82 C 446.10 781.13 442.58 781.86 439.15 781.21 C 429.84 779.19 420.21 779.63 410.94 777.44 C 406.33 776.58 401.70 775.79 397.03 775.34 C 362.05 768.35 327.55 757.81 295.73 741.50 C 265.67 726.38 237.90 706.69 213.75 683.27 C 207.65 678.36 202.98 672.03 197.41 666.58 C 172.68 639.48 152.77 608.03 138.59 574.20 C 131.74 557.80 126.22 540.85 121.79 523.65 C 119.84 516.16 118.70 508.47 116.63 501.01 C 115.19 487.39 111.77 473.99 111.27 460.28 C 109.65 453.25 111.20 445.94 109.66 438.90 C 109.32 423.94 109.44 408.96 109.59 394.00 C 111.13 386.71 109.71 379.17 111.39 371.90 C 111.31 362.80 113.82 353.98 114.56 344.97 C 116.73 332.51 119.05 320.07 122.25 307.81 C 137.63 245.91 170.10 188.32 215.36 143.35 C 241.53 116.52 272.42 94.34 306.10 77.93 C 334.24 64.19 364.30 54.60 395.01 48.70 C 399.98 47.20 405.30 47.58 410.28 46.03 C 414.87 45.52 419.39 44.27 424.04 44.44 C 430.11 44.36 435.92 41.95 442.03 42.50 M 463.44 319.74 C 449.72 322.03 438.52 331.57 430.79 342.70 C 419.52 358.45 412.92 377.14 409.44 396.06 C 407.33 404.56 407.19 413.34 405.67 421.94 C 405.32 436.63 405.53 451.33 405.53 466.02 C 405.45 468.45 405.78 470.87 406.18 473.27 C 407.61 479.62 407.98 486.18 409.91 492.43 C 411.84 498.90 414.59 505.15 418.27 510.82 C 424.40 520.41 435.58 526.48 446.96 526.49 C 459.25 527.14 472.04 522.58 480.52 513.52 C 490.22 504.33 495.71 491.67 499.80 479.19 C 502.89 468.02 506.00 456.73 506.77 445.13 C 507.99 440.30 508.50 435.34 508.69 430.38 C 510.05 423.67 509.16 416.79 509.63 410.02 C 511.07 401.43 510.19 392.67 510.44 384.00 C 510.85 378.95 509.17 374.06 509.49 369.02 C 508.35 359.45 506.72 349.80 502.81 340.92 C 499.29 332.62 492.99 325.12 484.47 321.71 C 477.94 318.50 470.45 319.47 463.44 319.74 Z" />
</g>
</svg>
